# xmcd
#
# Track frame offsets:
#	165
#	21795
#	50796
#	67636
#	118355
#	132447
#	148717
#	166201
#	179959
#	193195
#	213176
#	226709
#	240228
#
# Disc length: 3440 seconds
#
# Revision: 0
# Processed by: cddbd v1.5.1PL0 Copyright (c) Steve Scherf et al.
# Submitted via: audiograbber 1.82.01
#
DISCID=bb0d6e0d
DTITLE=Rolando Boldrin - Quatro Cantos da Terra
DYEAR=1997
DGENRE=Raízes
TTITLE0=Vide-Vida Marvada
TTITLE1=Asa Branca
TTITLE2=Rio São Francisco
TTITLE3=Samarica Parteira
TTITLE4=Frutos da Terra
TTITLE5=Dodói
TTITLE6=Papo de Arara com Papagaio
TTITLE7=Nheco Vari Nheco Fum
TTITLE8=Pêlo Duro
TTITLE9=Forronerão
TTITLE10=Amor de Violeiro
TTITLE11=Viola Quebrada
TTITLE12=Eu, a Viola e Deus
EXTD=
EXTT0=
EXTT1=
EXTT2=
EXTT3=
EXTT4=
EXTT5=
EXTT6=
EXTT7=
EXTT8=
EXTT9=
EXTT10=
EXTT11=
EXTT12=
PLAYORDER=
